<svg width="1013" height="160" viewBox="0 0 1013 160" fill="none" xmlns="http://www.w3.org/2000/svg">
<rect width="1013" height="160" fill="white"/>
<path d="M82.3219 45.5811L92.0019 54.0001L73.2539 75.0471" stroke="#333333" stroke-width="3" stroke-miterlimit="10"/>
<path d="M72 36.4299L84 40.1229L72 79.1149" stroke="#333333" stroke-width="3" stroke-miterlimit="10"/>
<path d="M72 32H48V92H72V32Z" stroke="#333333" stroke-width="3" stroke-miterlimit="10" stroke-linecap="square"/>
<path d="M60 85C61.6569 85 63 83.6569 63 82C63 80.3431 61.6569 79 60 79C58.3431 79 57 80.3431 57 82C57 83.6569 58.3431 85 60 85Z" stroke="#333333" stroke-width="3" stroke-miterlimit="10" stroke-linecap="square"/>
<path d="M48 72H72" stroke="#333333" stroke-width="3" stroke-miterlimit="10" stroke-linecap="square"/>
<path d="M35.3047 118.062C35.3047 116.117 36.1797 115.109 37.5312 115.109C38.875 115.109 39.5859 116.102 39.5859 117.188H41.7578V116.938C41.7578 114.836 40.1562 113.141 37.5156 113.141C34.6875 113.141 33 115 33 118.055V119.305C33 122.383 34.6719 124.203 37.5078 124.203C40.2188 124.203 41.7578 122.477 41.7578 120.492V120.234H39.5859C39.5859 121.328 38.8906 122.227 37.5469 122.227C36.1719 122.227 35.3047 121.273 35.3047 119.312V118.062ZM47.25 115.531C44.9219 115.531 43.3906 117.086 43.3906 119.414V120.227C43.3906 122.75 44.9062 124.148 47.25 124.148C49.5625 124.148 51.0859 122.734 51.0859 120.219V119.406C51.0859 117.039 49.5625 115.531 47.25 115.531ZM47.25 117.273C48.3516 117.273 48.8672 118.266 48.8672 119.43V120.242C48.8672 121.383 48.3906 122.406 47.25 122.406C46.1016 122.406 45.6172 121.375 45.6172 120.242V119.43C45.6172 118.273 46.1406 117.273 47.25 117.273ZM53.1562 124H55.3594V112.633H53.1562V124ZM61.2812 115.531C58.9531 115.531 57.4219 117.086 57.4219 119.414V120.227C57.4219 122.75 58.9375 124.148 61.2812 124.148C63.5938 124.148 65.1172 122.734 65.1172 120.219V119.406C65.1172 117.039 63.5938 115.531 61.2812 115.531ZM61.2812 117.273C62.3828 117.273 62.8984 118.266 62.8984 119.43V120.242C62.8984 121.383 62.4219 122.406 61.2812 122.406C60.1328 122.406 59.6484 121.375 59.6484 120.242V119.43C59.6484 118.273 60.1719 117.273 61.2812 117.273ZM74.5391 115.68H72.3438V120.594C72.3438 121.586 71.6016 122.219 70.7109 122.219C69.9922 122.219 69.2734 121.906 69.2734 120.672V115.68H67.0781V121.266C67.0781 123.25 68.1875 124.125 69.8438 124.125C71.3047 124.125 72.0625 123.266 72.2812 122.609H72.3984V124H74.5391V115.68ZM76.9922 124H79.25V119.375C79.25 118.258 79.8672 117.5 81.1953 117.5C81.5312 117.5 81.875 117.531 82.0391 117.594V115.625C81.875 115.586 81.6562 115.562 81.3516 115.562C80.0703 115.562 79.4609 116.422 79.3047 116.992H79.1953V115.68H76.9922V124ZM83.2422 118.156C83.2422 119.781 84.4453 120.336 85.9219 120.625C86.9922 120.828 87.9766 120.914 87.9766 121.672C87.9766 122.188 87.5703 122.609 86.6016 122.609C85.7266 122.609 85.2812 122.219 85.2109 121.664H83.0781C83.0781 123.148 84.3359 124.148 86.5 124.148C88.7734 124.148 90.1094 123.109 90.1094 121.406C90.1094 119.906 89.0312 119.305 87.5 119.047C86.6094 118.898 85.3359 118.789 85.3359 117.977C85.3359 117.43 85.8125 117.062 86.5938 117.062C87.4375 117.062 87.8594 117.539 87.9141 118H89.8516C89.8516 116.398 88.5156 115.531 86.6328 115.531C84.8359 115.531 83.2422 116.273 83.2422 118.156Z" fill="#333333"/>
<path d="M180 39V33H216V39" stroke="#333333" stroke-width="3" stroke-miterlimit="10" stroke-linecap="square"/>
<path d="M198 33V73" stroke="#333333" stroke-width="3" stroke-miterlimit="10" stroke-linecap="square"/>
<path d="M190 73H206" stroke="#333333" stroke-width="3" stroke-miterlimit="10" stroke-linecap="square"/>
<path d="M227 85H169" stroke="#333333" stroke-width="3" stroke-miterlimit="10"/>
<path d="M176 78L169 85L176 92" stroke="#333333" stroke-width="3" stroke-miterlimit="10" stroke-linecap="square"/>
<path d="M220 78L227 85L220 92" stroke="#333333" stroke-width="3" stroke-miterlimit="10" stroke-linecap="square"/>
<path d="M158.57 124V115.289H161.555V113.336H153.32V115.289H156.305V124H158.57ZM170.336 115.68H168L166.289 122.086H166.195L164.523 115.68H162.102L164.938 123.984L164.867 124.227C164.75 124.891 164.406 125.281 163.375 125.281C163.141 125.281 162.828 125.258 162.688 125.227V126.844C162.906 126.883 163.398 126.938 163.875 126.938C166.055 126.938 166.867 125.805 167.445 124.242L167.656 123.68C167.688 123.578 170.336 115.68 170.336 115.68ZM176.688 124.102C178.57 124.102 179.789 122.766 179.789 120.344V119.328C179.789 116.906 178.578 115.578 176.711 115.578C175.438 115.578 174.609 116.195 174.305 117H174.195V115.68H172.023V126.742H174.227V122.719H174.336C174.648 123.492 175.414 124.102 176.688 124.102ZM175.898 122.305C174.906 122.305 174.227 121.57 174.227 120.352V119.414C174.227 118.109 174.875 117.383 175.883 117.383C176.891 117.383 177.531 118.102 177.531 119.516V120.18C177.531 121.625 176.859 122.305 175.898 122.305ZM185.297 115.531C182.969 115.531 181.438 117.086 181.438 119.414V120.227C181.438 122.75 182.953 124.148 185.297 124.148C187.609 124.148 189.133 122.734 189.133 120.219V119.406C189.133 117.039 187.609 115.531 185.297 115.531ZM185.297 117.273C186.398 117.273 186.914 118.266 186.914 119.43V120.242C186.914 121.383 186.438 122.406 185.297 122.406C184.148 122.406 183.664 121.375 183.664 120.242V119.43C183.664 118.273 184.188 117.273 185.297 117.273ZM194.57 125.422C193.727 125.422 193.148 125.117 193.031 124.602H190.914C190.984 125.914 192.055 127.078 194.508 127.078C196.539 127.078 198.484 126.289 198.484 123.898V115.68H196.32V116.969H196.219C195.938 116.203 195.07 115.578 193.859 115.578C192.031 115.578 190.742 116.914 190.742 119.336V120.094C190.742 122.516 192.039 123.844 193.859 123.844C195.039 123.844 195.875 123.273 196.18 122.539H196.289V123.727C196.289 124.805 195.734 125.422 194.57 125.422ZM194.68 117.383C195.672 117.383 196.289 118.195 196.289 119.367V120.203C196.289 121.359 195.695 122.172 194.688 122.172C193.695 122.172 193 121.398 193 120.078V119.477C193 118.156 193.656 117.383 194.68 117.383ZM200.93 124H203.188V119.375C203.188 118.258 203.805 117.5 205.133 117.5C205.469 117.5 205.812 117.531 205.977 117.594V115.625C205.812 115.586 205.594 115.562 205.289 115.562C204.008 115.562 203.398 116.422 203.242 116.992H203.133V115.68H200.93V124ZM209.852 124.125C211.078 124.125 211.766 123.555 212.078 122.961H212.18V124H214.25V118.445C214.25 116.312 212.711 115.555 210.812 115.555C208.445 115.555 207.5 116.766 207.422 118.117H209.492C209.586 117.617 209.969 117.258 210.773 117.258C211.57 117.258 212.078 117.633 212.078 118.375V119.094H210.078C208.156 119.094 207.117 120.086 207.117 121.586C207.117 123.164 208.234 124.125 209.852 124.125ZM210.586 122.484C209.914 122.484 209.297 122.133 209.297 121.422C209.297 120.828 209.719 120.406 210.586 120.406H212.078V121.242C212.078 121.969 211.398 122.484 210.586 122.484ZM221.25 124.102C223.133 124.102 224.352 122.766 224.352 120.344V119.328C224.352 116.906 223.141 115.578 221.273 115.578C220 115.578 219.172 116.195 218.867 117H218.758V115.68H216.586V126.742H218.789V122.719H218.898C219.211 123.492 219.977 124.102 221.25 124.102ZM220.461 122.305C219.469 122.305 218.789 121.57 218.789 120.352V119.414C218.789 118.109 219.438 117.383 220.445 117.383C221.453 117.383 222.094 118.102 222.094 119.516V120.18C222.094 121.625 221.422 122.305 220.461 122.305ZM226.406 124H228.602V119.398C228.602 118.211 229.258 117.469 230.258 117.469C231.062 117.469 231.727 117.898 231.727 119.094V124H233.922V118.477C233.922 116.523 232.789 115.555 231.172 115.555C229.578 115.555 228.891 116.531 228.711 117.133H228.602V112.633H226.406V124ZM243.586 115.68H241.25L239.539 122.086H239.445L237.773 115.68H235.352L238.188 123.984L238.117 124.227C238 124.891 237.656 125.281 236.625 125.281C236.391 125.281 236.078 125.258 235.938 125.227V126.844C236.156 126.883 236.648 126.938 237.125 126.938C239.305 126.938 240.117 125.805 240.695 124.242L240.906 123.68C240.938 123.578 243.586 115.68 243.586 115.68Z" fill="#333333"/>
<path d="M335 62L355 42" stroke="#333333" stroke-width="3" stroke-miterlimit="10"/>
<path d="M305 70H327V92" stroke="#333333" stroke-width="3" stroke-miterlimit="10" stroke-linecap="square"/>
<path d="M365 32H305V92H365V32Z" stroke="#333333" stroke-width="3" stroke-miterlimit="10" stroke-linecap="square"/>
<path d="M355 58V42H339" stroke="#333333" stroke-width="3" stroke-miterlimit="10" stroke-linecap="square"/>
<path d="M315.859 120.922C315.891 122.438 316.906 124.203 320.047 124.203C322.688 124.203 324.32 122.891 324.32 120.797C324.32 118.836 323 118.078 321.438 117.758L319.82 117.406C318.867 117.219 318.367 116.828 318.367 116.219C318.367 115.438 319.047 114.938 320.141 114.938C321.375 114.938 321.992 115.617 322.047 116.336H324.156C324.133 114.477 322.531 113.125 320.148 113.125C317.891 113.125 316.109 114.297 316.109 116.406C316.109 118.234 317.359 119.078 318.859 119.398L320.461 119.75C321.539 119.984 322.086 120.32 322.086 121.031C322.086 121.82 321.414 122.367 320.156 122.367C318.805 122.367 318.094 121.68 318.031 120.922H315.859ZM326.453 124H328.648V115.68H326.453V124ZM326.195 113.266C326.195 113.961 326.719 114.461 327.539 114.461C328.383 114.461 328.906 113.961 328.906 113.266C328.906 112.562 328.375 112.062 327.539 112.062C326.719 112.062 326.195 112.562 326.195 113.266ZM330.836 124H337.477V122.219H333.633V122.117L337.375 117.086V115.68H330.891V117.461H334.719V117.562L330.836 122.742V124ZM342.898 124.148C345.328 124.148 346.359 122.609 346.43 121.523H344.375C344.289 122.039 343.703 122.422 342.891 122.422C341.875 122.422 341.211 121.742 341.211 120.719V120.328H346.5V119.391C346.5 117 344.977 115.531 342.789 115.531C340.711 115.531 339.055 116.852 339.055 119.391V120.273C339.055 122.805 340.578 124.148 342.898 124.148ZM341.211 119V118.93C341.211 117.898 341.852 117.211 342.805 117.211C343.758 117.211 344.383 117.898 344.383 118.93V119H341.211ZM348.172 118.156C348.172 119.781 349.375 120.336 350.852 120.625C351.922 120.828 352.906 120.914 352.906 121.672C352.906 122.188 352.5 122.609 351.531 122.609C350.656 122.609 350.211 122.219 350.141 121.664H348.008C348.008 123.148 349.266 124.148 351.43 124.148C353.703 124.148 355.039 123.109 355.039 121.406C355.039 119.906 353.961 119.305 352.43 119.047C351.539 118.898 350.266 118.789 350.266 117.977C350.266 117.43 350.742 117.062 351.523 117.062C352.367 117.062 352.789 117.539 352.844 118H354.781C354.781 116.398 353.445 115.531 351.562 115.531C349.766 115.531 348.172 116.273 348.172 118.156Z" fill="#333333"/>
<path d="M468 51L479 62L468 73" stroke="#333333" stroke-width="3" stroke-miterlimit="10" stroke-linecap="square"/>
<path d="M446 73L435 62L446 51" stroke="#333333" stroke-width="3" stroke-miterlimit="10" stroke-linecap="square"/>
<path d="M428 38V86" stroke="#333333" stroke-width="3" stroke-miterlimit="10" stroke-linecap="square"/>
<path d="M486 38V86" stroke="#333333" stroke-width="3" stroke-miterlimit="10" stroke-linecap="square"/>
<path d="M426.727 120.922C426.758 122.438 427.773 124.203 430.914 124.203C433.555 124.203 435.188 122.891 435.188 120.797C435.188 118.836 433.867 118.078 432.305 117.758L430.688 117.406C429.734 117.219 429.234 116.828 429.234 116.219C429.234 115.438 429.914 114.938 431.008 114.938C432.242 114.938 432.859 115.617 432.914 116.336H435.023C435 114.477 433.398 113.125 431.016 113.125C428.758 113.125 426.977 114.297 426.977 116.406C426.977 118.234 428.227 119.078 429.727 119.398L431.328 119.75C432.406 119.984 432.953 120.32 432.953 121.031C432.953 121.82 432.281 122.367 431.023 122.367C429.672 122.367 428.961 121.68 428.898 120.922H426.727ZM441.844 124.102C443.727 124.102 444.945 122.766 444.945 120.344V119.328C444.945 116.906 443.734 115.578 441.867 115.578C440.594 115.578 439.766 116.195 439.461 117H439.352V115.68H437.18V126.742H439.383V122.719H439.492C439.805 123.492 440.57 124.102 441.844 124.102ZM441.055 122.305C440.062 122.305 439.383 121.57 439.383 120.352V119.414C439.383 118.109 440.031 117.383 441.039 117.383C442.047 117.383 442.688 118.102 442.688 119.516V120.18C442.688 121.625 442.016 122.305 441.055 122.305ZM449.289 124.125C450.516 124.125 451.203 123.555 451.516 122.961H451.617V124H453.688V118.445C453.688 116.312 452.148 115.555 450.25 115.555C447.883 115.555 446.938 116.766 446.859 118.117H448.93C449.023 117.617 449.406 117.258 450.211 117.258C451.008 117.258 451.516 117.633 451.516 118.375V119.094H449.516C447.594 119.094 446.555 120.086 446.555 121.586C446.555 123.164 447.672 124.125 449.289 124.125ZM450.023 122.484C449.352 122.484 448.734 122.133 448.734 121.422C448.734 120.828 449.156 120.406 450.023 120.406H451.516V121.242C451.516 121.969 450.836 122.484 450.023 122.484ZM455.641 120.266C455.641 122.758 457.117 124.148 459.383 124.148C461.492 124.148 462.859 123.078 462.898 121.18H460.883C460.797 121.789 460.469 122.352 459.453 122.352C458.453 122.352 457.852 121.578 457.852 120.25V119.367C457.852 118.125 458.43 117.328 459.453 117.328C460.414 117.328 460.797 117.992 460.852 118.562H462.867C462.836 116.883 461.602 115.531 459.391 115.531C457.062 115.531 455.641 117.062 455.641 119.344V120.266ZM464.961 124H467.156V115.68H464.961V124ZM464.703 113.266C464.703 113.961 465.227 114.461 466.047 114.461C466.891 114.461 467.414 113.961 467.414 113.266C467.414 112.562 466.883 112.062 466.047 112.062C465.227 112.062 464.703 112.562 464.703 113.266ZM469.672 124H471.867V119.398C471.867 118.219 472.492 117.469 473.523 117.469C474.312 117.469 474.953 117.891 474.953 119.094V124H477.148V118.469C477.148 116.516 476.055 115.555 474.391 115.555C472.781 115.555 472.133 116.492 471.922 117.133H471.812V115.68H469.672V124ZM482.914 125.422C482.07 125.422 481.492 125.117 481.375 124.602H479.258C479.328 125.914 480.398 127.078 482.852 127.078C484.883 127.078 486.828 126.289 486.828 123.898V115.68H484.664V116.969H484.562C484.281 116.203 483.414 115.578 482.203 115.578C480.375 115.578 479.086 116.914 479.086 119.336V120.094C479.086 122.516 480.383 123.844 482.203 123.844C483.383 123.844 484.219 123.273 484.523 122.539H484.633V123.727C484.633 124.805 484.078 125.422 482.914 125.422ZM483.023 117.383C484.016 117.383 484.633 118.195 484.633 119.367V120.203C484.633 121.359 484.039 122.172 483.031 122.172C482.039 122.172 481.344 121.398 481.344 120.078V119.477C481.344 118.156 482 117.383 483.023 117.383Z" fill="#333333"/>
<path d="M574 34H557V90H574V34Z" stroke="#333333" stroke-width="3" stroke-miterlimit="10" stroke-linecap="square"/>
<path d="M594 34H582V90H594V34Z" stroke="#333333" stroke-width="3" stroke-miterlimit="10" stroke-linecap="square"/>
<path d="M609 34H602V90H609V34Z" stroke="#333333" stroke-width="3" stroke-miterlimit="10" stroke-linecap="square"/>
<path d="M617 34V90" stroke="#333333" stroke-width="3" stroke-miterlimit="10" stroke-linecap="square"/>
<path d="M558.789 116.805C558.719 114.953 557.336 113.141 554.523 113.141C551.617 113.141 549.906 115.062 549.906 117.977V119.289C549.906 122.07 551.305 124.203 554.484 124.203C557.68 124.203 558.805 122.055 558.805 120.289V118.195H554.57V119.891H556.656V120.453C556.656 121.43 555.836 122.25 554.516 122.25C552.844 122.25 552.188 120.984 552.188 119.281V118C552.188 116.016 553.148 115.094 554.492 115.094C555.617 115.094 556.453 115.734 556.586 116.805H558.789ZM560.945 124H563.203V119.375C563.203 118.258 563.82 117.5 565.148 117.5C565.484 117.5 565.828 117.531 565.992 117.594V115.625C565.828 115.586 565.609 115.562 565.305 115.562C564.023 115.562 563.414 116.422 563.258 116.992H563.148V115.68H560.945V124ZM569.867 124.125C571.094 124.125 571.781 123.555 572.094 122.961H572.195V124H574.266V118.445C574.266 116.312 572.727 115.555 570.828 115.555C568.461 115.555 567.516 116.766 567.438 118.117H569.508C569.602 117.617 569.984 117.258 570.789 117.258C571.586 117.258 572.094 117.633 572.094 118.375V119.094H570.094C568.172 119.094 567.133 120.086 567.133 121.586C567.133 123.164 568.25 124.125 569.867 124.125ZM570.602 122.484C569.93 122.484 569.312 122.133 569.312 121.422C569.312 120.828 569.734 120.406 570.602 120.406H572.094V121.242C572.094 121.969 571.414 122.484 570.602 122.484ZM579.344 115.578C577.445 115.578 576.234 116.953 576.234 119.281V120.391C576.234 122.734 577.461 124.094 579.32 124.094C580.633 124.094 581.5 123.445 581.742 122.672H581.844V124H584.016V112.633H581.812V116.953H581.711C581.43 116.18 580.609 115.578 579.344 115.578ZM580.117 117.383C581.102 117.383 581.812 118.109 581.812 119.328V120.266C581.812 121.57 581.141 122.297 580.141 122.297C579.148 122.297 578.492 121.578 578.492 120.203V119.469C578.492 118.109 579.141 117.383 580.117 117.383ZM586.57 124H588.766V115.68H586.57V124ZM586.312 113.266C586.312 113.961 586.836 114.461 587.656 114.461C588.5 114.461 589.023 113.961 589.023 113.266C589.023 112.562 588.492 112.062 587.656 112.062C586.836 112.062 586.312 112.562 586.312 113.266ZM594.75 124.148C597.18 124.148 598.211 122.609 598.281 121.523H596.227C596.141 122.039 595.555 122.422 594.742 122.422C593.727 122.422 593.062 121.742 593.062 120.719V120.328H598.352V119.391C598.352 117 596.828 115.531 594.641 115.531C592.562 115.531 590.906 116.852 590.906 119.391V120.273C590.906 122.805 592.43 124.148 594.75 124.148ZM593.062 119V118.93C593.062 117.898 593.703 117.211 594.656 117.211C595.609 117.211 596.234 117.898 596.234 118.93V119H593.062ZM600.328 124H602.523V119.398C602.523 118.219 603.148 117.469 604.18 117.469C604.969 117.469 605.609 117.891 605.609 119.094V124H607.805V118.469C607.805 116.516 606.711 115.555 605.047 115.555C603.438 115.555 602.789 116.492 602.578 117.133H602.469V115.68H600.328V124ZM610.727 115.789H609.414V117.523H610.68V121.641C610.68 123.359 611.414 124.039 613.5 124.039C614.008 124.039 614.594 123.977 614.758 123.945V122.273C614.609 122.289 614.312 122.305 614.039 122.305C613.211 122.305 612.859 122.055 612.859 121.281V117.523H614.695V115.789H612.859V113.727H610.727V115.789ZM616.336 118.156C616.336 119.781 617.539 120.336 619.016 120.625C620.086 120.828 621.07 120.914 621.07 121.672C621.07 122.188 620.664 122.609 619.695 122.609C618.82 122.609 618.375 122.219 618.305 121.664H616.172C616.172 123.148 617.43 124.148 619.594 124.148C621.867 124.148 623.203 123.109 623.203 121.406C623.203 119.906 622.125 119.305 620.594 119.047C619.703 118.898 618.43 118.789 618.43 117.977C618.43 117.43 618.906 117.062 619.688 117.062C620.531 117.062 620.953 117.539 621.008 118H622.945C622.945 116.398 621.609 115.531 619.727 115.531C617.93 115.531 616.336 116.273 616.336 118.156Z" fill="#333333"/>
<path d="M715 32V92" stroke="#333333" stroke-width="3" stroke-miterlimit="10"/>
<path d="M715 92C731.569 92 745 78.5685 745 62C745 45.4315 731.569 32 715 32C698.431 32 685 45.4315 685 62C685 78.5685 698.431 92 715 92Z" stroke="#333333" stroke-width="3" stroke-miterlimit="10" stroke-linecap="square"/>
<path d="M688.555 118.031C688.555 116.086 689.516 115.078 690.875 115.078C692.242 115.078 693.203 116.086 693.203 118.031V119.359C693.203 121.305 692.242 122.258 690.875 122.258C689.516 122.258 688.555 121.305 688.555 119.359V118.031ZM686.25 119.352C686.25 122.359 687.969 124.203 690.867 124.203C693.773 124.203 695.508 122.359 695.508 119.352V118.055C695.508 115.039 693.789 113.141 690.883 113.141C687.984 113.141 686.25 115.023 686.25 118.055V119.352ZM702.25 124.102C704.133 124.102 705.352 122.766 705.352 120.344V119.328C705.352 116.906 704.141 115.578 702.273 115.578C701 115.578 700.172 116.195 699.867 117H699.758V115.68H697.586V126.742H699.789V122.719H699.898C700.211 123.492 700.977 124.102 702.25 124.102ZM701.461 122.305C700.469 122.305 699.789 121.57 699.789 120.352V119.414C699.789 118.109 700.438 117.383 701.445 117.383C702.453 117.383 703.094 118.102 703.094 119.516V120.18C703.094 121.625 702.422 122.305 701.461 122.305ZM709.695 124.125C710.922 124.125 711.609 123.555 711.922 122.961H712.023V124H714.094V118.445C714.094 116.312 712.555 115.555 710.656 115.555C708.289 115.555 707.344 116.766 707.266 118.117H709.336C709.43 117.617 709.812 117.258 710.617 117.258C711.414 117.258 711.922 117.633 711.922 118.375V119.094H709.922C708 119.094 706.961 120.086 706.961 121.586C706.961 123.164 708.078 124.125 709.695 124.125ZM710.43 122.484C709.758 122.484 709.141 122.133 709.141 121.422C709.141 120.828 709.562 120.406 710.43 120.406H711.922V121.242C711.922 121.969 711.242 122.484 710.43 122.484ZM716.047 120.266C716.047 122.758 717.523 124.148 719.789 124.148C721.898 124.148 723.266 123.078 723.305 121.18H721.289C721.203 121.789 720.875 122.352 719.859 122.352C718.859 122.352 718.258 121.578 718.258 120.25V119.367C718.258 118.125 718.836 117.328 719.859 117.328C720.82 117.328 721.203 117.992 721.258 118.562H723.273C723.242 116.883 722.008 115.531 719.797 115.531C717.469 115.531 716.047 117.062 716.047 119.344V120.266ZM725.367 124H727.562V115.68H725.367V124ZM725.109 113.266C725.109 113.961 725.633 114.461 726.453 114.461C727.297 114.461 727.82 113.961 727.82 113.266C727.82 112.562 727.289 112.062 726.453 112.062C725.633 112.062 725.109 112.562 725.109 113.266ZM730.664 115.789H729.352V117.523H730.617V121.641C730.617 123.359 731.352 124.039 733.438 124.039C733.945 124.039 734.531 123.977 734.695 123.945V122.273C734.547 122.289 734.25 122.305 733.977 122.305C733.148 122.305 732.797 122.055 732.797 121.281V117.523H734.633V115.789H732.797V113.727H730.664V115.789ZM744.211 115.68H741.875L740.164 122.086H740.07L738.398 115.68H735.977L738.812 123.984L738.742 124.227C738.625 124.891 738.281 125.281 737.25 125.281C737.016 125.281 736.703 125.258 736.562 125.227V126.844C736.781 126.883 737.273 126.938 737.75 126.938C739.93 126.938 740.742 125.805 741.32 124.242L741.531 123.68C741.562 123.578 744.211 115.68 744.211 115.68Z" fill="#333333"/>
<path d="M806 32V92H866" stroke="#333333" stroke-width="3" stroke-miterlimit="10" stroke-linecap="square"/>
<path d="M840 84C840 69.641 828.359 58 814 58" stroke="#333333" stroke-width="3" stroke-miterlimit="10" stroke-linecap="square"/>
<path d="M822.688 113.336H818.344V124H820.57V120.117H822.328L824.18 124H826.695L824.555 119.773C825.336 119.469 826.484 118.531 826.484 116.773C826.484 114.82 825.25 113.336 822.688 113.336ZM820.57 118.398V115.141H822.359C823.391 115.141 824.156 115.695 824.156 116.805C824.156 117.859 823.453 118.398 822.328 118.398H820.57ZM830.875 124.125C832.102 124.125 832.789 123.555 833.102 122.961H833.203V124H835.273V118.445C835.273 116.312 833.734 115.555 831.836 115.555C829.469 115.555 828.523 116.766 828.445 118.117H830.516C830.609 117.617 830.992 117.258 831.797 117.258C832.594 117.258 833.102 117.633 833.102 118.375V119.094H831.102C829.18 119.094 828.141 120.086 828.141 121.586C828.141 123.164 829.258 124.125 830.875 124.125ZM831.609 122.484C830.938 122.484 830.32 122.133 830.32 121.422C830.32 120.828 830.742 120.406 831.609 120.406H833.102V121.242C833.102 121.969 832.422 122.484 831.609 122.484ZM840.352 115.578C838.453 115.578 837.242 116.953 837.242 119.281V120.391C837.242 122.734 838.469 124.094 840.328 124.094C841.641 124.094 842.508 123.445 842.75 122.672H842.852V124H845.023V112.633H842.82V116.953H842.719C842.438 116.18 841.617 115.578 840.352 115.578ZM841.125 117.383C842.109 117.383 842.82 118.109 842.82 119.328V120.266C842.82 121.57 842.148 122.297 841.148 122.297C840.156 122.297 839.5 121.578 839.5 120.203V119.469C839.5 118.109 840.148 117.383 841.125 117.383ZM847.578 124H849.773V115.68H847.578V124ZM847.32 113.266C847.32 113.961 847.844 114.461 848.664 114.461C849.508 114.461 850.031 113.961 850.031 113.266C850.031 112.562 849.5 112.062 848.664 112.062C847.844 112.062 847.32 112.562 847.32 113.266ZM852.438 124H854.633V115.68H852.438V124ZM852.18 113.266C852.18 113.961 852.703 114.461 853.523 114.461C854.367 114.461 854.891 113.961 854.891 113.266C854.891 112.562 854.359 112.062 853.523 112.062C852.703 112.062 852.18 112.562 852.18 113.266Z" fill="#333333"/>
<path d="M981 35H927V89H981V35Z" stroke="#333333" stroke-width="3" stroke-miterlimit="10" stroke-linecap="square"/>
<path d="M948 58C950.761 58 953 55.7614 953 53C953 50.2386 950.761 48 948 48C945.239 48 943 50.2386 943 53C943 55.7614 945.239 58 948 58Z" stroke="#333333" stroke-width="3" stroke-miterlimit="10" stroke-linecap="square"/>
<path d="M933 74L942 65L950 73L966 57L975 66" stroke="#333333" stroke-width="3" stroke-miterlimit="10" stroke-linecap="square"/>
<path d="M936.906 124V113.336H934.641V124H936.906ZM939.023 120.266C939.023 122.758 940.5 124.148 942.766 124.148C944.875 124.148 946.242 123.078 946.281 121.18H944.266C944.18 121.789 943.852 122.352 942.836 122.352C941.836 122.352 941.234 121.578 941.234 120.25V119.367C941.234 118.125 941.812 117.328 942.836 117.328C943.797 117.328 944.18 117.992 944.234 118.562H946.25C946.219 116.883 944.984 115.531 942.773 115.531C940.445 115.531 939.023 117.062 939.023 119.344V120.266ZM951.68 115.531C949.352 115.531 947.82 117.086 947.82 119.414V120.227C947.82 122.75 949.336 124.148 951.68 124.148C953.992 124.148 955.516 122.734 955.516 120.219V119.406C955.516 117.039 953.992 115.531 951.68 115.531ZM951.68 117.273C952.781 117.273 953.297 118.266 953.297 119.43V120.242C953.297 121.383 952.82 122.406 951.68 122.406C950.531 122.406 950.047 121.375 950.047 120.242V119.43C950.047 118.273 950.57 117.273 951.68 117.273ZM957.523 124H959.719V119.398C959.719 118.219 960.344 117.469 961.375 117.469C962.164 117.469 962.805 117.891 962.805 119.094V124H965V118.469C965 116.516 963.906 115.555 962.242 115.555C960.633 115.555 959.984 116.492 959.773 117.133H959.664V115.68H957.523V124ZM967.031 118.156C967.031 119.781 968.234 120.336 969.711 120.625C970.781 120.828 971.766 120.914 971.766 121.672C971.766 122.188 971.359 122.609 970.391 122.609C969.516 122.609 969.07 122.219 969 121.664H966.867C966.867 123.148 968.125 124.148 970.289 124.148C972.562 124.148 973.898 123.109 973.898 121.406C973.898 119.906 972.82 119.305 971.289 119.047C970.398 118.898 969.125 118.789 969.125 117.977C969.125 117.43 969.602 117.062 970.383 117.062C971.227 117.062 971.648 117.539 971.703 118H973.641C973.641 116.398 972.305 115.531 970.422 115.531C968.625 115.531 967.031 116.273 967.031 118.156Z" fill="#333333"/>
</svg>
