<svg width="149" height="28" viewBox="0 0 149 28" fill="none" xmlns="http://www.w3.org/2000/svg">
<g clip-path="url(#clip0_1132_181)">
<path fill-rule="evenodd" clip-rule="evenodd" d="M139.347 10.4658C136.424 9.80602 135.402 9.73252 135.402 8.56935C135.402 7.4896 136.848 7.15302 137.682 7.15302C139.033 7.15302 140.621 7.46685 142.241 8.29985L143.419 5.49519C141.762 4.5881 139.629 4.21185 137.576 4.21185C133.544 4.21185 130.84 5.84635 130.729 9.03427C130.611 11.9399 132.977 13.0295 135.15 13.4787C137.244 13.9104 139.369 14.2808 139.411 15.5256C139.451 16.6736 138.42 17.1648 136.472 17.1648C134.667 17.1648 132.992 16.5849 131.277 15.868L130.278 18.9148C132.245 19.7542 134.245 20.215 136.308 20.215C139.172 20.215 141.259 19.7694 142.799 18.325C143.866 17.3322 144.215 16.1346 144.215 14.9948C144.215 12.5844 142.714 11.2264 139.347 10.4658Z" fill="white"/>
<path fill-rule="evenodd" clip-rule="evenodd" d="M119.24 4.65692V14.3408C119.24 15.0998 119.24 15.3098 119.192 15.6043C119.057 16.5272 118.158 17.0627 116.732 17.0808C115.676 17.0644 114.903 16.7523 114.542 16.1999C114.36 15.9147 114.273 15.4054 114.273 14.5923V4.65692H109.782V15.1616C109.782 16.617 109.976 17.2727 110.631 18.1028C111.717 19.4625 113.831 20.1748 116.742 20.1748C116.772 20.1748 116.803 20.1748 116.835 20.1748C116.852 20.1748 116.878 20.1748 116.898 20.1748C120.798 20.1748 122.807 18.6523 123.391 17.2313C123.682 16.5423 123.705 16.2151 123.705 14.8233V4.65692H119.24Z" fill="white"/>
<path fill-rule="evenodd" clip-rule="evenodd" d="M104.463 16.8912H97.8606V4.65692H93.5282V19.8988H104.463V16.8912Z" fill="white"/>
<path fill-rule="evenodd" clip-rule="evenodd" d="M85.8229 7.62084V4.65692H75.2576V19.8988H85.8229V16.8072H79.5381V13.4291H84.7659V10.4698H79.5381V7.62084H85.8229Z" fill="white"/>
<path fill-rule="evenodd" clip-rule="evenodd" d="M69.1122 7.66517V4.65692H55.8186V7.66517H60.3102V19.8988H64.6164V7.66517H69.1122Z" fill="white"/>
<path fill-rule="evenodd" clip-rule="evenodd" d="M57.848 0.483769L32.6573 5.49927V7.25452L32.739 7.23352C49.3792 3.18985 57.848 0.759102 57.9168 0.739852C58.0113 0.715936 58.0434 0.642436 58.0306 0.580602C58.0178 0.515269 57.9495 0.462186 57.848 0.483769Z" fill="white"/>
<path fill-rule="evenodd" clip-rule="evenodd" d="M37.3666 0.00249066C36.1416 0.073074 33.8748 1.88607 32.6311 2.96466C27.6739 7.25157 23.9896 11.1937 21.3097 15.322C15.7237 18.3122 8.603 21.3887 1.53067 23.7914L1.36092 23.8492L0 27.5142L0.777 27.2132C5.27508 25.5 12.7826 22.2806 19.5889 18.7018C19.2051 19.7238 19.012 20.6624 19.012 21.5199C19.012 22.1604 19.1187 22.7507 19.3334 23.2956C19.7622 24.3701 20.6039 25.1873 21.7741 25.6528C23.5153 26.3476 25.8924 26.361 28.6038 25.5402C35.5308 23.4385 43.7465 16.995 45.5356 15.7134L45.6021 15.6644C45.6727 15.6148 45.6779 15.5378 45.647 15.4865C45.6085 15.4276 45.5268 15.4136 45.4586 15.4527L45.3711 15.5075C43.4507 16.6549 34.1232 22.1942 28.0595 23.8217C24.9725 24.6507 22.6187 24.1962 21.7303 22.9549C21.4223 22.5314 21.2742 21.9936 21.2742 21.3665C21.2742 20.1467 21.8482 18.5892 22.9571 16.8614C23.9773 16.2787 24.9282 15.7117 25.7862 15.1756C31.7024 11.85 38.5175 5.38549 38.8068 1.44099C38.8086 1.41416 38.8086 1.38324 38.8086 1.35291C38.8086 1.01457 38.6616 0.661657 38.4038 0.402657C38.1267 0.120324 37.7603 -0.0208427 37.3666 0.00249066ZM36.7074 1.88432C37.0965 1.63407 37.2085 1.78982 37.0947 2.07332C36.9081 2.52541 36.0564 5.25249 29.7138 10.4582C28.0595 11.8138 26.8818 12.5768 24.5006 13.9856C28.4013 8.51682 34.0982 3.58007 36.7074 1.88432Z" fill="white"/>
<path fill-rule="evenodd" clip-rule="evenodd" d="M32.5757 5.5156L6.07249 11.2124L5.04816 13.9669L32.6573 7.25451L32.7005 7.24401V5.48993L32.5757 5.5156Z" fill="white"/>
<path fill-rule="evenodd" clip-rule="evenodd" d="M146.36 6.13509H146.662C146.915 6.13509 147.149 6.12225 147.149 5.83C147.149 5.58442 146.937 5.54709 146.742 5.54709H146.36V6.13509ZM146.072 5.31317H146.789C147.229 5.31317 147.436 5.487 147.436 5.84284C147.436 6.17767 147.225 6.31709 146.949 6.34684L147.479 7.16467H147.169L146.665 6.36842H146.36V7.16467H146.072V5.31317ZM146.691 7.59342C147.425 7.59342 147.992 7.00834 147.992 6.2325C147.992 5.47417 147.425 4.88967 146.691 4.88967C145.949 4.88967 145.382 5.47417 145.382 6.2325C145.382 7.00834 145.949 7.59342 146.691 7.59342ZM146.691 4.65692C147.555 4.65692 148.279 5.33942 148.279 6.2325C148.279 7.14484 147.555 7.82617 146.691 7.82617C145.822 7.82617 145.093 7.14484 145.093 6.2325C145.093 5.33942 145.822 4.65692 146.691 4.65692Z" fill="white"/>
</g>
<defs>
<clipPath id="clip0_1132_181">
<rect width="149" height="28" fill="white"/>
</clipPath>
</defs>
</svg>
