<svg width="104" height="21" viewBox="0 0 104 21" fill="none" xmlns="http://www.w3.org/2000/svg">
<path fill-rule="evenodd" clip-rule="evenodd" d="M40.5449 4.10101H43.3769V5.13601C43.787 4.73401 44.2728 4.41727 44.8061 4.20409C45.3394 3.99091 45.9096 3.88553 46.4839 3.89401C47.0198 3.89822 47.5491 4.01255 48.039 4.2299C48.5288 4.44726 48.9688 4.76299 49.3315 5.15751C49.6942 5.55202 49.972 6.01689 50.1475 6.52325C50.323 7.02961 50.3926 7.56664 50.3519 8.10101V14.72H47.3119V8.92901C47.3119 7.48101 46.6219 6.65301 45.3809 6.65301C44.2079 6.65301 43.4499 7.48101 43.4499 8.92901V14.72H40.4049L40.5449 4.10101ZM72.3849 9.41201C72.37 9.07324 72.422 8.73485 72.5379 8.41618C72.6539 8.09751 72.8315 7.80482 73.0606 7.55481C73.2897 7.30481 73.5658 7.10241 73.8732 6.95917C74.1805 6.81593 74.5131 6.73466 74.8519 6.72001H74.9409C75.2744 6.71777 75.6052 6.78126 75.9142 6.90684C76.2232 7.03242 76.5045 7.21764 76.7419 7.45192C76.9794 7.68621 77.1683 7.96497 77.298 8.27228C77.4278 8.5796 77.4957 8.90945 77.4979 9.24301C77.4979 9.29801 77.4979 9.35401 77.4929 9.41001C77.5222 10.0933 77.2788 10.7603 76.8163 11.2642C76.3539 11.7681 75.7102 12.0677 75.0269 12.097H74.9409C74.2473 12.08 73.5887 11.7886 73.1096 11.2868C72.6305 10.785 72.3699 10.1137 72.3849 9.42001V9.41201ZM69.4159 9.41201C69.4143 10.505 69.7369 11.5738 70.3427 12.4834C70.9486 13.3931 71.8106 14.1026 72.8198 14.5223C73.8289 14.942 74.9399 15.0531 76.0121 14.8414C77.0843 14.6297 78.0697 14.1048 78.8437 13.3331C79.6176 12.5614 80.1454 11.5776 80.3601 10.5059C80.5749 9.43429 80.4671 8.32304 80.0503 7.3127C79.6335 6.30235 78.9265 5.43828 78.0186 4.82976C77.1108 4.22124 76.0428 3.8956 74.9499 3.89401H74.9409C74.2195 3.88967 73.5043 4.02749 72.8362 4.2996C72.1681 4.57172 71.5601 4.9728 71.0471 5.47993C70.534 5.98706 70.1259 6.5903 69.846 7.2552C69.5661 7.9201 69.4199 8.63362 69.4159 9.35501C69.4149 9.374 69.4149 9.39303 69.4159 9.41201ZM30.8059 9.41201C30.7908 9.07329 30.8427 8.73492 30.9586 8.41626C31.0744 8.0976 31.2519 7.80489 31.4809 7.55488C31.7099 7.30486 31.986 7.10244 32.2933 6.95919C32.6006 6.81594 32.9331 6.73466 33.2719 6.72001H33.3609C34.0346 6.71495 34.6828 6.97769 35.1629 7.45045C35.6429 7.9232 35.9156 8.56727 35.9209 9.24101V9.41001C35.9502 10.0933 35.7068 10.7603 35.2443 11.2642C34.7819 11.7681 34.1382 12.0677 33.4549 12.097H33.3659C32.678 12.058 32.0307 11.7588 31.5551 11.2603C31.0796 10.7617 30.8124 10.101 30.8059 9.41201ZM27.8359 9.41201C27.8343 10.505 28.1569 11.5738 28.7627 12.4834C29.3686 13.3931 30.2306 14.1026 31.2398 14.5223C32.2489 14.942 33.3599 15.0531 34.4321 14.8414C35.5043 14.6297 36.4897 14.1048 37.2637 13.3331C38.0376 12.5614 38.5654 11.5776 38.7801 10.5059C38.9949 9.43429 38.8871 8.32304 38.4703 7.3127C38.0535 6.30235 37.3465 5.43828 36.4386 4.82976C35.5307 4.22124 34.4628 3.8956 33.3699 3.89401H33.3619C31.9049 3.8855 30.5043 4.45605 29.468 5.48016C28.4317 6.50427 27.8446 7.89808 27.8359 9.35501V9.41201ZM95.1049 4.10101H98.1439V14.72H95.1049V4.10101ZM95.1049 0.239014H98.1439V2.92901H95.1049V0.239014ZM100.562 0.239014H103.605V14.653H100.567L100.562 0.239014ZM90.2049 9.41201C90.2311 10.0804 89.9908 10.7317 89.5368 11.2229C89.0828 11.7141 88.4522 12.0047 87.7839 12.031H87.6499C86.9559 12.0318 86.2898 11.7574 85.7978 11.268C85.3057 10.7786 85.0278 10.114 85.0249 9.42001C85.0193 9.07989 85.0808 8.742 85.2058 8.42563C85.3308 8.10926 85.5169 7.82061 85.7534 7.57616C86.2312 7.08247 86.8855 6.79879 87.5724 6.78751C88.2593 6.77624 88.9225 7.03831 89.4162 7.51606C89.9099 7.9938 90.1936 8.6481 90.2049 9.33501V9.41201ZM85.0939 14.653V13.826C85.9961 14.5377 87.1226 14.9043 88.2709 14.86C89.6637 14.7764 90.9692 14.1536 91.9107 13.1237C92.8521 12.0938 93.3554 10.7377 93.3139 9.34301C93.3543 8.65279 93.2573 7.9614 93.0285 7.30895C92.7997 6.6565 92.4436 6.05598 91.9809 5.54221C91.5182 5.02844 90.9581 4.61165 90.3331 4.31602C89.7081 4.02039 89.0306 3.85179 88.3399 3.82001C87.7638 3.78341 87.1863 3.86183 86.6408 4.05068C86.0954 4.23953 85.593 4.53505 85.1629 4.92001V0.239014H82.1929V14.653H85.0939ZM13.5389 14.653L16.7159 10.446L18.7159 12.515L14.1569 18.378H17.7519L20.6519 14.516L26.1049 20.24H30.3869L22.5869 12.102L28.8029 4.10201H25.2109L20.6519 10.102L18.6519 8.03201L23.7629 1.48001H20.2379L16.7849 6.10101L14.9229 4.10101H10.7049L14.9889 8.52001L10.1539 14.72C10.0159 14.653 13.5389 14.653 13.5389 14.653ZM0.00488281 0.239014H9.32888V2.92901H3.17788V5.89401H9.04888V8.52001H3.17788V11.969H9.32488V14.72H0.00488281V0.239014ZM52.8439 0.239014H57.8169L60.1609 10.72H60.2989L62.7849 0.239014H67.6199V14.653H64.6499V3.82001H64.5119L61.8869 14.653H58.5719L55.9469 3.82001H55.8049V14.653H52.8349V0.239014H52.8439Z" fill="white"/>
</svg>
