<svg xmlns="http://www.w3.org/2000/svg" width="279.265" height="20.24"><g data-name="Group 8"><g data-name="Group 2"><g data-name="Group 1" fill="#5a5a5a"><path data-name="Path 1" d="M146.767 13.592q-.217.122-.5.25a4.462 4.462 0 0 1-.661.235 6.92 6.92 0 0 1-.878.174 8.4 8.4 0 0 1-1.143.068 4.889 4.889 0 0 1-1.928-.379 4.534 4.534 0 0 1-1.555-1.083 4.982 4.982 0 0 1-1.036-1.718 6.511 6.511 0 0 1-.374-2.271 6.763 6.763 0 0 1 .346-2.226 4.819 4.819 0 0 1 1-1.711 4.5 4.5 0 0 1 1.591-1.1 5.389 5.389 0 0 1 2.115-.394 6.486 6.486 0 0 1 1.72.189 7.972 7.972 0 0 1 1.072.372v.787a5.647 5.647 0 0 0-1.158-.462 6.218 6.218 0 0 0-1.72-.2 4.416 4.416 0 0 0-1.849.363 3.783 3.783 0 0 0-1.338 1 4.311 4.311 0 0 0-.813 1.491 6.061 6.061 0 0 0-.274 1.855 5.89 5.89 0 0 0 .324 2.015 4.4 4.4 0 0 0 .9 1.514 3.912 3.912 0 0 0 1.36.953 4.337 4.337 0 0 0 1.72.334 5.705 5.705 0 0 0 1.848-.25 7.14 7.14 0 0 0 1.231-.553Z"/><path data-name="Path 2" d="M149.064 7.555a2.933 2.933 0 0 1 .475-.273 5.243 5.243 0 0 1 .619-.242 6.016 6.016 0 0 1 .691-.175 3.812 3.812 0 0 1 .705-.068 3.239 3.239 0 0 1 1.029.152 1.857 1.857 0 0 1 .77.485 2.251 2.251 0 0 1 .488.855 4.059 4.059 0 0 1 .173 1.264v4.588h-.619V9.735a2.772 2.772 0 0 0-.453-1.764 1.8 1.8 0 0 0-1.475-.553 3.085 3.085 0 0 0-.669.076 5.542 5.542 0 0 0-.655.19 4.512 4.512 0 0 0-.59.257c-.182.1-.345.189-.489.28v5.92h-.619V2.967h.619Z"/><path data-name="Path 3" d="M161.468 13.702a4.784 4.784 0 0 1-1.014.454 4.527 4.527 0 0 1-1.418.2 3.48 3.48 0 0 1-1.338-.249 2.871 2.871 0 0 1-1.029-.715 3.23 3.23 0 0 1-.661-1.143 4.675 4.675 0 0 1-.238-1.545 5.19 5.19 0 0 1 .238-1.62 3.532 3.532 0 0 1 .676-1.234 2.987 2.987 0 0 1 1.044-.78 3.216 3.216 0 0 1 1.338-.273 2.859 2.859 0 0 1 1.3.273 2.457 2.457 0 0 1 .885.742 3.2 3.2 0 0 1 .51 1.1 5.142 5.142 0 0 1 .166 1.325c0 .06 0 .136-.008.227s-.012.176-.021.257h-5.484a3.994 3.994 0 0 0 .165 1.166 2.663 2.663 0 0 0 .511.954 2.422 2.422 0 0 0 .856.643 2.847 2.847 0 0 0 1.2.235 3.816 3.816 0 0 0 1.367-.235 4.112 4.112 0 0 0 .949-.476Zm-2.446-6.268a2.342 2.342 0 0 0-1.777.719 3.131 3.131 0 0 0-.8 1.93h4.835a4.039 4.039 0 0 0-.129-1.045 2.294 2.294 0 0 0-.411-.84 1.97 1.97 0 0 0-.7-.56 2.328 2.328 0 0 0-1.018-.204Z"/><path data-name="Path 4" d="M163.598 7.251q.475-.15 1.187-.3a7.218 7.218 0 0 1 1.5-.152 3.819 3.819 0 0 1 1.23.183 1.876 1.876 0 0 1 .814.483 7.981 7.981 0 0 1 1.064-.431 4.927 4.927 0 0 1 1.582-.235 3.283 3.283 0 0 1 1.21.19 1.882 1.882 0 0 1 .748.507 1.791 1.791 0 0 1 .381.75 3.681 3.681 0 0 1 .108.9v5h-.619V9.25a2.815 2.815 0 0 0-.094-.749 1.335 1.335 0 0 0-.316-.575 1.531 1.531 0 0 0-.59-.371 2.616 2.616 0 0 0-.913-.137 3.889 3.889 0 0 0-.641.054 5.817 5.817 0 0 0-.626.136 5.439 5.439 0 0 0-.554.182 2.619 2.619 0 0 0-.424.2 2.182 2.182 0 0 1 .123.492 4.438 4.438 0 0 1 .049.674v4.981h-.619V9.205a2.485 2.485 0 0 0-.129-.871 1.263 1.263 0 0 0-.381-.544 1.481 1.481 0 0 0-.626-.288 4.044 4.044 0 0 0-.877-.084 5.98 5.98 0 0 0-1.144.106q-.54.106-.828.182v6.435h-.619Z"/><path data-name="Path 5" d="M175.527 4.329h.806v.863h-.806Zm.086 2.651h.619v7.161h-.619Z"/><path data-name="Path 6" d="M183.729 13.884a4.283 4.283 0 0 1-.9.325 5.042 5.042 0 0 1-1.273.144 3.729 3.729 0 0 1-1.454-.272 3.2 3.2 0 0 1-1.107-.765 3.42 3.42 0 0 1-.713-1.181 4.443 4.443 0 0 1-.252-1.537 4.6 4.6 0 0 1 .244-1.529 3.482 3.482 0 0 1 .706-1.2 3.163 3.163 0 0 1 1.121-.788 3.822 3.822 0 0 1 1.5-.28 4.618 4.618 0 0 1 1.144.129 3.878 3.878 0 0 1 .814.3v.742a4.174 4.174 0 0 0-.857-.364 3.863 3.863 0 0 0-1.172-.166 2.721 2.721 0 0 0-2.059.81 3.179 3.179 0 0 0-.777 2.293 3.978 3.978 0 0 0 .188 1.243 2.942 2.942 0 0 0 .553 1.006 2.638 2.638 0 0 0 .9.682 2.818 2.818 0 0 0 1.209.249 4.514 4.514 0 0 0 1.352-.181 4.45 4.45 0 0 0 .834-.334Z"/><path data-name="Path 7" d="M190.407 13.778a8.2 8.2 0 0 1-1.087.363 6.294 6.294 0 0 1-1.676.2 3.326 3.326 0 0 1-1.986-.522 1.943 1.943 0 0 1-.719-1.688 2.468 2.468 0 0 1 .165-.917 1.855 1.855 0 0 1 .526-.726 2.531 2.531 0 0 1 .928-.485 4.739 4.739 0 0 1 1.374-.174 8.714 8.714 0 0 1 1.108.061 7.844 7.844 0 0 1 .777.135v-.363a3.633 3.633 0 0 0-.137-1.082 1.6 1.6 0 0 0-.4-.681 1.413 1.413 0 0 0-.648-.349 3.558 3.558 0 0 0-.877-.1 3.853 3.853 0 0 0-1.3.212 9.519 9.519 0 0 0-1 .409v-.667q.173-.09.425-.2a5.269 5.269 0 0 1 .561-.2 5.69 5.69 0 0 1 .662-.152 4.152 4.152 0 0 1 .7-.061 2.534 2.534 0 0 1 2.022.689 3.144 3.144 0 0 1 .583 2.067Zm-.59-3.119a38.45 38.45 0 0 1-.828-.114 7.926 7.926 0 0 0-1.115-.068 2.708 2.708 0 0 0-1.749.462 1.431 1.431 0 0 0-.554 1.143 1.519 1.519 0 0 0 .482 1.181 2.465 2.465 0 0 0 1.662.439 5.46 5.46 0 0 0 1.237-.128c.365-.086.653-.165.864-.235Z"/><path data-name="Path 8" d="M192.608 2.967h.619v11.174h-.619Z"/><path data-name="Path 9" d="M195.054 13.142a3.4 3.4 0 0 0 1.015.409 4.872 4.872 0 0 0 1.173.151 2.114 2.114 0 0 0 1.352-.363 1.188 1.188 0 0 0 .447-.97 1.125 1.125 0 0 0-.123-.552 1.092 1.092 0 0 0-.367-.378 2.94 2.94 0 0 0-.6-.288c-.24-.086-.523-.179-.849-.28a7.78 7.78 0 0 1-.878-.326 2.842 2.842 0 0 1-.661-.4 1.487 1.487 0 0 1-.417-.546 1.8 1.8 0 0 1-.144-.756 1.969 1.969 0 0 1 .158-.78 1.763 1.763 0 0 1 .475-.644 2.436 2.436 0 0 1 .784-.438 3.284 3.284 0 0 1 1.1-.167 4.863 4.863 0 0 1 1.036.106 3.016 3.016 0 0 1 .748.242v.712a4.373 4.373 0 0 0-.77-.3 3.979 3.979 0 0 0-1.13-.136 1.954 1.954 0 0 0-1.345.386 1.314 1.314 0 0 0-.425 1.022.956.956 0 0 0 .453.855 6.135 6.135 0 0 0 1.36.6q.475.151.877.318a3.223 3.223 0 0 1 .706.394 1.646 1.646 0 0 1 .474.552 1.687 1.687 0 0 1 .173.8 1.988 1.988 0 0 1-.137.719 1.628 1.628 0 0 1-.439.628 2.345 2.345 0 0 1-.777.447 3.311 3.311 0 0 1-1.137.174 5.7 5.7 0 0 1-1.208-.121 3.111 3.111 0 0 1-.922-.333Z"/><path data-name="Path 10" d="m211.732 14.141-1.352-1.589a5.208 5.208 0 0 1-1.532 1.385 3.436 3.436 0 0 1-1.676.431 3.1 3.1 0 0 1-2.223-.776 2.725 2.725 0 0 1-.813-2.074 2.791 2.791 0 0 1 .683-1.931 6 6 0 0 1 2.022-1.37 10.92 10.92 0 0 1-.871-1.227 2.607 2.607 0 0 1-.367-1.377 2.417 2.417 0 0 1 .165-.9 2.244 2.244 0 0 1 .461-.727 2.069 2.069 0 0 1 .705-.484 2.3 2.3 0 0 1 .913-.174 2.4 2.4 0 0 1 .828.143 2.09 2.09 0 0 1 .7.417 1.971 1.971 0 0 1 .483.681 2.354 2.354 0 0 1 .18.954 2.537 2.537 0 0 1-.6 1.725 4.749 4.749 0 0 1-1.7 1.182l2.576 3.1c.124-.181.277-.432.46-.75s.354-.633.518-.946q.288-.544.6-1.151h.705q-.375.713-.734 1.348-.3.544-.626 1.1t-.526.871l.95 1.09q.173.213.345.4c.115.126.216.24.3.34s.156.18.209.235l.065.068Zm-4.575-.363a2.829 2.829 0 0 0 1.518-.454 4.325 4.325 0 0 0 1.273-1.257l-2.763-3.392a7.2 7.2 0 0 0-1.166.6 3.3 3.3 0 0 0-.762.666 2.382 2.382 0 0 0-.417.75 2.691 2.691 0 0 0-.13.848 2.2 2.2 0 0 0 .187.924 2.162 2.162 0 0 0 .511.7 2.228 2.228 0 0 0 .776.454 2.921 2.921 0 0 0 .973.161Zm-.965-8.207a2.465 2.465 0 0 0 .093.705 2.667 2.667 0 0 0 .259.589 4.8 4.8 0 0 0 .381.553q.215.273.461.576a5.287 5.287 0 0 0 1.568-1.037 1.936 1.936 0 0 0 .533-1.4 1.569 1.569 0 0 0-1.641-1.62 1.749 1.749 0 0 0-.712.136 1.533 1.533 0 0 0-.518.363 1.555 1.555 0 0 0-.317.523 1.787 1.787 0 0 0-.106.612Z"/><path data-name="Path 11" d="M216.971 12.718a5.553 5.553 0 0 0 1.288.644 5.346 5.346 0 0 0 1.82.28 3.049 3.049 0 0 0 2.073-.621 1.988 1.988 0 0 0 .705-1.559 1.96 1.96 0 0 0-.18-.887 1.625 1.625 0 0 0-.547-.6 4.075 4.075 0 0 0-.907-.447q-.539-.2-1.273-.408a10.933 10.933 0 0 1-1.245-.432 3.349 3.349 0 0 1-.928-.568 2.277 2.277 0 0 1-.576-.787 2.683 2.683 0 0 1-.2-1.091 2.521 2.521 0 0 1 .245-1.112 2.635 2.635 0 0 1 .7-.887 3.352 3.352 0 0 1 1.08-.59 4.317 4.317 0 0 1 1.388-.212 5.883 5.883 0 0 1 1.6.189 9.669 9.669 0 0 1 1.021.341v.787q-.172-.075-.417-.189a4.381 4.381 0 0 0-.575-.212 6.209 6.209 0 0 0-.741-.166 5.749 5.749 0 0 0-.928-.068 3.021 3.021 0 0 0-2 .583 1.877 1.877 0 0 0-.691 1.506 1.837 1.837 0 0 0 .165.81 1.683 1.683 0 0 0 .5.6 3.642 3.642 0 0 0 .834.469 10.556 10.556 0 0 0 1.195.41q.7.211 1.288.438a4.13 4.13 0 0 1 1 .546 2.214 2.214 0 0 1 .647.779 2.47 2.47 0 0 1 .231 1.113 3.111 3.111 0 0 1-.187 1.053 2.572 2.572 0 0 1-.6.946 3.084 3.084 0 0 1-1.094.689 4.522 4.522 0 0 1-1.64.265 6.028 6.028 0 0 1-1.856-.242 4.77 4.77 0 0 1-1.18-.545Z"/><path data-name="Path 12" d="M225.418 7.492a6.469 6.469 0 0 1 1.137-.477 5.309 5.309 0 0 1 1.626-.22 3.689 3.689 0 0 1 1.417.258 3.024 3.024 0 0 1 1.073.735 3.242 3.242 0 0 1 .683 1.15 4.951 4.951 0 0 1-.022 3.1 3.55 3.55 0 0 1-.741 1.226 3.379 3.379 0 0 1-1.151.8 3.746 3.746 0 0 1-1.489.287 4.53 4.53 0 0 1-1.1-.113 3.347 3.347 0 0 1-.813-.325v3.785h-.619Zm2.69-.06a4.741 4.741 0 0 0-1.194.144 4.169 4.169 0 0 0-.878.31v5.33a3.565 3.565 0 0 0 .929.37 4.252 4.252 0 0 0 1.058.129 3.074 3.074 0 0 0 1.151-.212 2.552 2.552 0 0 0 .921-.621 2.9 2.9 0 0 0 .612-1.014 4.025 4.025 0 0 0 .222-1.393 3.175 3.175 0 0 0-.748-2.218 2.657 2.657 0 0 0-2.073-.823Z"/><path data-name="Path 13" d="M238.613 13.702a4.771 4.771 0 0 1-1.015.454 4.521 4.521 0 0 1-1.417.2 3.485 3.485 0 0 1-1.339-.249 2.858 2.858 0 0 1-1.028-.715 3.245 3.245 0 0 1-.662-1.143 4.7 4.7 0 0 1-.238-1.545 5.218 5.218 0 0 1 .238-1.62 3.549 3.549 0 0 1 .677-1.234 2.986 2.986 0 0 1 1.043-.78 3.213 3.213 0 0 1 1.338-.273 2.855 2.855 0 0 1 1.3.273 2.449 2.449 0 0 1 .885.742 3.217 3.217 0 0 1 .511 1.1 5.184 5.184 0 0 1 .165 1.325c0 .06 0 .136-.008.227s-.011.176-.021.257h-5.483a3.994 3.994 0 0 0 .165 1.166 2.646 2.646 0 0 0 .51.954 2.431 2.431 0 0 0 .856.643 2.847 2.847 0 0 0 1.2.235 3.816 3.816 0 0 0 1.367-.235 4.141 4.141 0 0 0 .95-.476Zm-2.447-6.268a2.343 2.343 0 0 0-1.777.719 3.136 3.136 0 0 0-.8 1.93h4.835a4.081 4.081 0 0 0-.128-1.045 2.309 2.309 0 0 0-.411-.84 1.981 1.981 0 0 0-.705-.56 2.326 2.326 0 0 0-1.014-.204Z"/><path data-name="Path 14" d="M245.962 13.884a4.294 4.294 0 0 1-.9.325 5.032 5.032 0 0 1-1.273.144 3.724 3.724 0 0 1-1.453-.272 3.2 3.2 0 0 1-1.108-.765 3.418 3.418 0 0 1-.712-1.181 4.443 4.443 0 0 1-.252-1.537 4.58 4.58 0 0 1 .244-1.529 3.5 3.5 0 0 1 .705-1.2 3.167 3.167 0 0 1 1.122-.788 3.819 3.819 0 0 1 1.5-.28 4.624 4.624 0 0 1 1.144.129 3.848 3.848 0 0 1 .813.3v.742a4.141 4.141 0 0 0-.856-.364 3.87 3.87 0 0 0-1.173-.166 2.72 2.72 0 0 0-2.058.81 3.179 3.179 0 0 0-.777 2.293 4.007 4.007 0 0 0 .187 1.243 2.929 2.929 0 0 0 .554 1.006 2.643 2.643 0 0 0 .9.682 2.824 2.824 0 0 0 1.209.249 4.582 4.582 0 0 0 2.188-.515Z"/><path data-name="Path 15" d="M247.492 4.329h.806v.863h-.806Zm.086 2.651h.62v7.161h-.62Z"/><path data-name="Path 16" d="M255.521 13.778a8.2 8.2 0 0 1-1.087.363 6.294 6.294 0 0 1-1.675.2 3.326 3.326 0 0 1-1.986-.522 1.943 1.943 0 0 1-.719-1.688 2.467 2.467 0 0 1 .165-.917 1.854 1.854 0 0 1 .526-.726 2.531 2.531 0 0 1 .928-.485 4.739 4.739 0 0 1 1.374-.174 8.714 8.714 0 0 1 1.108.061 7.844 7.844 0 0 1 .777.135v-.363a3.633 3.633 0 0 0-.137-1.082 1.6 1.6 0 0 0-.4-.681 1.413 1.413 0 0 0-.648-.349 3.558 3.558 0 0 0-.877-.1 3.853 3.853 0 0 0-1.3.212 9.519 9.519 0 0 0-1 .409v-.667q.173-.09.425-.2a5.271 5.271 0 0 1 .561-.2 5.691 5.691 0 0 1 .662-.152 4.152 4.152 0 0 1 .7-.061 2.534 2.534 0 0 1 2.022.689 3.144 3.144 0 0 1 .583 2.067Zm-.59-3.119a38.45 38.45 0 0 1-.828-.114 7.925 7.925 0 0 0-1.115-.068 2.708 2.708 0 0 0-1.749.462 1.431 1.431 0 0 0-.554 1.143 1.519 1.519 0 0 0 .482 1.181 2.465 2.465 0 0 0 1.662.439 5.46 5.46 0 0 0 1.237-.128c.365-.086.653-.165.864-.235Z"/><path data-name="Path 17" d="M257.723 2.967h.619v11.174h-.619Z"/><path data-name="Path 18" d="M259.508 6.98h1.3V4.829h.619V6.98h2.3v.605h-2.3v4.224a2.176 2.176 0 0 0 .374 1.447 1.343 1.343 0 0 0 1.051.416 3.5 3.5 0 0 0 .438-.03 2.876 2.876 0 0 0 .44-.091v.576a2.341 2.341 0 0 1-.453.113 3.568 3.568 0 0 1-.526.038 1.736 1.736 0 0 1-1.475-.614 2.862 2.862 0 0 1-.468-1.764V7.585h-1.3Z"/><path data-name="Path 19" d="M264.717 4.329h.806v.863h-.806Zm.086 2.651h.619v7.161h-.619Z"/><path data-name="Path 20" d="M272.947 13.702a4.761 4.761 0 0 1-1.014.454 4.521 4.521 0 0 1-1.417.2 3.481 3.481 0 0 1-1.339-.249 2.87 2.87 0 0 1-1.024-.715 3.244 3.244 0 0 1-.661-1.143 4.675 4.675 0 0 1-.238-1.545 5.191 5.191 0 0 1 .238-1.62 3.518 3.518 0 0 1 .677-1.234 2.992 2.992 0 0 1 1.043-.78 3.216 3.216 0 0 1 1.338-.273 2.859 2.859 0 0 1 1.3.273 2.457 2.457 0 0 1 .885.742 3.216 3.216 0 0 1 .511 1.1 5.183 5.183 0 0 1 .165 1.325c0 .06 0 .136-.008.227s-.011.176-.021.257h-5.484a3.962 3.962 0 0 0 .166 1.166 2.646 2.646 0 0 0 .51.954 2.431 2.431 0 0 0 .856.643 2.847 2.847 0 0 0 1.2.235 3.816 3.816 0 0 0 1.367-.235 4.112 4.112 0 0 0 .949-.476Zm-2.446-6.268a2.343 2.343 0 0 0-1.777.719 3.131 3.131 0 0 0-.8 1.93h4.835a4.039 4.039 0 0 0-.129-1.045 2.308 2.308 0 0 0-.41-.84 1.982 1.982 0 0 0-.705-.56 2.325 2.325 0 0 0-1.014-.204Z"/><path data-name="Path 21" d="M274.646 13.142a3.379 3.379 0 0 0 1.014.409 4.885 4.885 0 0 0 1.174.151 2.116 2.116 0 0 0 1.352-.363 1.19 1.19 0 0 0 .446-.97 1.125 1.125 0 0 0-.123-.552 1.084 1.084 0 0 0-.367-.378 2.893 2.893 0 0 0-.6-.288q-.359-.129-.849-.28a7.849 7.849 0 0 1-.878-.326 2.862 2.862 0 0 1-.661-.4 1.508 1.508 0 0 1-.417-.546 1.817 1.817 0 0 1-.144-.756 1.969 1.969 0 0 1 .159-.78 1.741 1.741 0 0 1 .475-.644 2.426 2.426 0 0 1 .784-.438 3.281 3.281 0 0 1 1.1-.167 4.857 4.857 0 0 1 1.036.106 3.038 3.038 0 0 1 .749.242v.712a4.4 4.4 0 0 0-.77-.3 3.984 3.984 0 0 0-1.13-.136 1.958 1.958 0 0 0-1.346.386 1.313 1.313 0 0 0-.424 1.022.958.958 0 0 0 .452.855 6.126 6.126 0 0 0 1.361.6q.475.151.877.318a3.237 3.237 0 0 1 .705.394 1.659 1.659 0 0 1 .475.552 1.687 1.687 0 0 1 .173.8 1.99 1.99 0 0 1-.138.719 1.616 1.616 0 0 1-.438.628 2.355 2.355 0 0 1-.777.447 3.311 3.311 0 0 1-1.137.174 5.713 5.713 0 0 1-1.209-.121 3.094 3.094 0 0 1-.921-.333Z"/></g><path data-name="Shape 1 copy" d="M122.694 20.045h-.827V0h.827Z" fill="#b4b4b4" fill-rule="evenodd"/></g><path data-name="Path 65" d="M40.545 4.101h2.832v1.035a4.347 4.347 0 0 1 3.107-1.242 3.91 3.91 0 0 1 3.868 4.207v6.619h-3.04V8.929c0-1.448-.69-2.276-1.931-2.276-1.173 0-1.931.828-1.931 2.276v5.791h-3.045l.14-10.619Zm31.84 5.311a2.581 2.581 0 0 1 2.467-2.692h.089a2.54 2.54 0 0 1 2.557 2.523c0 .055 0 .111-.005.167a2.579 2.579 0 0 1-2.466 2.687h-.086a2.621 2.621 0 0 1-2.556-2.677Zm-2.969 0a5.526 5.526 0 1 0 5.534-5.518h-.009a5.492 5.492 0 0 0-5.525 5.461.542.542 0 0 0 0 .057Zm-38.61 0a2.58 2.58 0 0 1 2.466-2.692h.089a2.541 2.541 0 0 1 2.56 2.521v.169a2.579 2.579 0 0 1-2.466 2.687h-.089a2.715 2.715 0 0 1-2.561-2.685Zm-2.97 0a5.526 5.526 0 1 0 5.534-5.518h-.008a5.494 5.494 0 0 0-5.526 5.461Zm67.269-5.311h3.039V14.72h-3.039Zm0-3.862h3.039v2.69h-3.039Zm5.457 0h3.043v14.414h-3.038ZM90.205 9.412a2.522 2.522 0 0 1-2.421 2.619h-.134a2.622 2.622 0 0 1-2.625-2.611 2.59 2.59 0 0 1 5.18-.085v.077Zm-5.111 5.241v-.827a4.829 4.829 0 0 0 3.177 1.034 5.367 5.367 0 0 0 5.043-5.517A5.223 5.223 0 0 0 88.34 3.82a4.35 4.35 0 0 0-3.177 1.1V.239h-2.97v14.414Zm-71.555 0 3.177-4.207 2 2.069-4.559 5.863h3.595l2.9-3.862 5.453 5.724h4.282l-7.8-8.138 6.216-8h-3.592l-4.559 6-2-2.07 5.111-6.552h-3.525l-3.453 4.621-1.862-2h-4.218l4.284 4.419-4.835 6.2c-.138-.067 3.385-.067 3.385-.067ZM.005.239h9.324v2.69H3.178v2.965h5.871V8.52H3.178v3.449h6.147v2.751H.005Zm52.839 0h4.973l2.344 10.481h.138L62.785.239h4.835v14.414h-2.97V3.82h-.138l-2.625 10.833h-3.315L55.947 3.82h-.142v10.833h-2.97V.239Z" fill="#fe000c" fill-rule="evenodd"/></g></svg>
